HIERARCHY
ROOT Hips
{
	OFFSET 0.00000 0.00000 0.00000
	CHANNELS 6 Xposition Yposition Zposition Zrotation Yrotation Xrotation 
	JOINT LHipJoint
	{
		OFFSET 0 0 0
		CHANNELS 3 Zrotation Yrotation Xrotation
		JOINT LeftUpLeg
		{
			OFFSET 1.75344 -1.53157 0.77399
			CHANNELS 3 Zrotation Yrotation Xrotation
			JOINT LeftLeg
			{
				OFFSET 2.25415 -6.19323 0.00000
				CHANNELS 3 Zrotation Yrotation Xrotation
				JOINT LeftFoot
				{
					OFFSET 2.30342 -6.32861 0.00000
					CHANNELS 3 Zrotation Yrotation Xrotation
					JOINT LeftToeBase
					{
						OFFSET 0.10958 -0.30108 1.49206
						CHANNELS 3 Zrotation Yrotation Xrotation
						End Site
						{
							OFFSET 0.00000 -0.00000 0.77783
						}
					}
				}
			}
		}
	}
	JOINT RHipJoint
	{
		OFFSET 0 0 0
		CHANNELS 3 Zrotation Yrotation Xrotation
		JOINT RightUpLeg
		{
			OFFSET -1.81912 -1.53156 0.77399
			CHANNELS 3 Zrotation Yrotation Xrotation
			JOINT RightLeg
			{
				OFFSET -2.22882 -6.12365 0.00000
				CHANNELS 3 Zrotation Yrotation Xrotation
				JOINT RightFoot
				{
					OFFSET -2.21943 -6.09785 0.00000
					CHANNELS 3 Zrotation Yrotation Xrotation
					JOINT RightToeBase
					{
						OFFSET -0.18931 -0.52012 1.59379
						CHANNELS 3 Zrotation Yrotation Xrotation
						End Site
						{
							OFFSET -0.00000 -0.00000 0.84686
						}
					}
				}
			}
		}
	}
	JOINT LowerBack
	{
		OFFSET 0 0 0
		CHANNELS 3 Zrotation Yrotation Xrotation
		JOINT Spine
		{
			OFFSET -0.00200 1.66634 -0.14248
			CHANNELS 3 Zrotation Yrotation Xrotation
			JOINT Spine1
			{
				OFFSET -0.00875 1.64542 0.09514
				CHANNELS 3 Zrotation Yrotation Xrotation
				JOINT Neck
				{
					OFFSET 0 0 0
					CHANNELS 3 Zrotation Yrotation Xrotation
					JOINT Neck1
					{
						OFFSET 0.02257 1.59605 0.00839
						CHANNELS 3 Zrotation Yrotation Xrotation
						JOINT Head
						{
							OFFSET -0.10214 1.57530 -0.23335
							CHANNELS 3 Zrotation Yrotation Xrotation
							End Site
							{
								OFFSET -0.03588 1.60717 -0.08062
							}
						}
					}
				}
				JOINT LeftShoulder
				{
					OFFSET 0 0 0
					CHANNELS 3 Zrotation Yrotation Xrotation
					JOINT LeftArm
					{
						OFFSET 2.54983 1.10186 0.40078
						CHANNELS 3 Zrotation Yrotation Xrotation
						JOINT LeftForeArm
						{
							OFFSET 4.28840 -0.00000 0.00000
							CHANNELS 3 Zrotation Yrotation Xrotation
							JOINT LeftHand
							{
								OFFSET 3.06552 -0.00000 -0.00000
								CHANNELS 3 Zrotation Yrotation Xrotation
								JOINT LeftFingerBase
								{
									OFFSET 0 0 0
									CHANNELS 3 Zrotation Yrotation Xrotation
									JOINT LeftHandIndex1
									{
										OFFSET 0.75304 -0.00000 0.00000
										CHANNELS 3 Zrotation Yrotation Xrotation
										End Site
										{
											OFFSET 0.60712 -0.00000 0.00000
										}
									}
								}
								JOINT LThumb
								{
									OFFSET 0 0 0
									CHANNELS 3 Zrotation Yrotation Xrotation
									End Site
									{
										OFFSET 0.61639 -0.00000 0.61639
									}
								}
							}
						}
					}
				}
				JOINT RightShoulder
				{
					OFFSET 0 0 0
					CHANNELS 3 Zrotation Yrotation Xrotation
					JOINT RightArm
					{
						OFFSET -2.60909 1.35448 0.21802
						CHANNELS 3 Zrotation Yrotation Xrotation
						JOINT RightForeArm
						{
							OFFSET -4.52172 -0.00000 -0.00000
							CHANNELS 3 Zrotation Yrotation Xrotation
							JOINT RightHand
							{
								OFFSET -2.89140 -0.00000 0.00000
								CHANNELS 3 Zrotation Yrotation Xrotation
								JOINT RightFingerBase
								{
									OFFSET 0 0 0
									CHANNELS 3 Zrotation Yrotation Xrotation
									JOINT RightHandIndex1
									{
										OFFSET -0.68054 -0.00000 0.00000
										CHANNELS 3 Zrotation Yrotation Xrotation
										End Site
										{
											OFFSET -0.54867 -0.00000 0.00000
										}
									}
								}
								JOINT RThumb
								{
									OFFSET 0 0 0
									CHANNELS 3 Zrotation Yrotation Xrotation
									End Site
									{
										OFFSET -0.55705 -0.00000 0.55705
									}
								}
							}
						}
					}
				}
			}
		}
	}
}
MOTION
Frames: 10
Frame Time: .0083333
8.4829 15.4280 23.0024 180.4020 11.3733 183.0970 0.0000 0.0000 0.0000 -24.0115 -10.3309 -6.3183 1.9914 8.8482 25.3217 1.6827 9.0953 -29.2422 2.3748 -9.6067 -27.7121 0.0000 0.0000 0.0000 23.9890 15.6727 -3.3331 -1.6228 -8.0317 22.8103 -0.5894 -12.1240 -23.5091 -0.4310 4.2132 -11.6771 0.7885 1.0182 9.1276 0.5133 1.5308 -3.3845 -0.1534 0.7263 -8.7163 -6.6372 -0.5285 -5.7904 6.8820 -0.3021 -0.0458 3.4063 -0.0215 1.0356 0.0000 -0.0000 0.0000 -83.6480 15.9402 26.3260 19.4972 -30.0318 -5.2774 -0.0000 -0.0000 14.1976 -9.8122 -28.5348 4.7228 -7.1250 0.0000 -0.0000 -23.2010 2.9529 24.0725 0.0000 -0.0000 0.0000 80.9716 -13.2102 26.3202 -20.9792 31.8040 -6.0390 0.0000 0.0000 19.9878 -5.8193 -52.5427 4.6253 7.1250 -0.0000 -0.0000 68.2059 -73.2771 -51.2425
8.4804 15.4174 22.9992 180.4750 11.4572 183.2210 0.0000 0.0000 0.0000 -23.8517 -9.9940 -6.8611 2.0644 8.9990 25.7922 1.7552 8.7197 -29.4649 2.4693 -9.7818 -28.2730 0.0000 0.0000 0.0000 23.9569 15.4451 -3.8374 -1.6861 -8.1792 23.2598 -0.6533 -11.8012 -23.7424 -0.4719 4.4057 -12.2210 0.9260 1.0360 9.2570 0.5006 1.5708 -3.3467 -0.2529 0.7368 -8.7467 -6.5107 -0.5195 -5.9538 6.7335 -0.2807 -0.1181 3.3312 -0.0086 1.0377 0.0000 0.0000 0.0000 -83.6369 15.7506 25.7857 19.2120 -29.6812 -5.1354 -0.0000 -0.0000 15.0833 -10.3169 -28.4548 4.9571 -7.1250 0.0000 -0.0000 -23.4752 3.0288 24.3802 0.0000 0.0000 0.0000 80.9281 -13.1099 26.1577 -20.8876 31.6970 -5.9908 0.0000 0.0000 20.0367 -6.2091 -52.1542 4.9103 7.1250 -0.0000 -0.0000 66.7634 -73.2893 -49.9544
8.4769 15.4052 22.9960 180.5360 11.4674 183.3210 0.0000 0.0000 0.0000 -23.6916 -9.6557 -7.4388 2.1551 9.1819 26.3660 1.8418 8.1006 -29.6267 2.4201 -9.6912 -27.9823 0.0000 0.0000 0.0000 23.9277 15.2091 -4.3317 -1.7571 -8.3406 23.7535 -0.7172 -11.4860 -23.9841 -0.5008 4.5370 -12.5925 1.1017 1.2239 9.6592 0.2969 1.8353 -3.4732 -0.6240 0.8444 -9.1051 -5.8158 -0.6654 -5.7201 6.5290 -0.5122 -0.3900 3.1169 -0.1265 0.9176 0.0000 -0.0000 0.0000 -83.0556 15.7331 26.1451 19.0078 -29.4284 -5.0347 -0.0000 -0.0000 15.7416 -10.6601 -28.5263 5.1366 -7.1250 0.0000 -0.0000 -23.6518 2.9620 24.6333 0.0000 -0.0000 0.0000 81.3692 -13.4458 25.4545 -20.8729 31.6796 -5.9830 0.0000 0.0000 20.0725 -6.5717 -51.7946 5.1727 7.1250 -0.0000 -0.0000 65.4253 -73.2942 -48.7636
8.4765 15.3940 22.9966 180.5050 11.4145 183.4630 0.0000 0.0000 0.0000 -23.5961 -9.2714 -8.1761 2.2624 9.3925 27.0309 1.9320 7.4070 -29.7786 2.3798 -9.6160 -27.7419 0.0000 0.0000 0.0000 23.7981 14.9958 -4.9261 -1.8369 -8.5177 24.2979 -0.7683 -11.2039 -24.1499 -0.5165 4.6062 -12.7888 0.9800 1.0094 9.4959 0.5266 1.5445 -3.2792 -0.2555 0.7203 -8.8126 -6.3458 -0.4387 -5.6389 6.5580 -0.1453 -0.9840 3.2334 0.0606 0.6907 -0.0000 -0.0000 0.0000 -83.7605 15.4036 24.9394 18.8127 -29.1853 -4.9392 -0.0000 -0.0000 16.5873 -11.1580 -28.2967 5.3417 -7.1250 0.0000 -0.0000 -23.9326 3.1742 24.8881 -0.0000 -0.0000 0.0000 80.6117 -12.9652 26.2710 -20.8000 31.5942 -5.9448 0.0000 0.0000 19.8449 -6.8339 -51.6041 5.3658 7.1250 -0.0000 -0.0000 64.6743 -73.3198 -48.1255
8.4785 15.3817 23.0039 180.5300 11.2754 183.7000 0.0000 0.0000 0.0000 -23.4023 -8.8908 -9.1026 2.3848 9.6253 27.7718 1.9815 6.8853 -29.7878 2.5684 -9.9612 -28.8513 0.0000 0.0000 0.0000 23.7295 14.8593 -5.6415 -1.9275 -8.7134 24.9030 -0.8033 -11.0515 -24.3023 -0.5106 4.5805 -12.7158 0.9767 0.9170 9.5080 0.5454 1.4189 -3.1897 -0.2117 0.6601 -8.7241 -6.2318 -0.3680 -5.6894 6.4601 -0.0231 -1.4026 3.1782 0.1279 0.5558 -0.0000 -0.0000 0.0000 -83.8203 14.9892 24.4554 18.5807 -28.8943 -4.8266 -0.0000 -0.0000 17.2918 -11.4753 -27.9324 5.4321 -7.1250 0.0000 -0.0000 -24.1297 3.5110 24.9759 -0.0000 -0.0000 0.0000 80.4874 -12.7460 26.3788 -20.8033 31.5980 -5.9466 0.0000 0.0000 19.8713 -6.7132 -51.3930 5.2553 7.1250 -0.0000 -0.0000 64.0910 -73.1952 -47.4713
8.4802 15.3643 23.0133 180.6210 11.0942 183.9590 0.0000 0.0000 0.0000 -23.1394 -8.5969 -10.0642 2.5209 9.8759 28.5757 2.0157 6.4024 -29.7309 2.8403 -10.4320 -30.3872 0.0000 0.0000 0.0000 23.7196 14.7065 -6.3836 -2.0270 -8.9220 25.5517 -0.8963 -10.6393 -24.6988 -0.4381 4.2474 -11.7738 1.1101 0.9235 9.6398 0.4428 1.4360 -3.1650 -0.4006 0.6566 -8.7681 -5.7981 -0.3897 -5.8684 6.4164 -0.0552 -1.4813 3.0799 0.1178 0.5623 0.0000 0.0000 0.0000 -83.4434 14.6571 24.6361 18.4198 -28.6913 -4.7490 -0.0000 -0.0000 17.7003 -11.5223 -27.9430 5.4567 -7.1250 0.0000 -0.0000 -24.1537 3.5008 25.0111 0.0000 0.0000 0.0000 80.7810 -12.6768 25.8288 -20.7651 31.5531 -5.9265 0.0000 0.0000 20.1711 -6.5421 -50.9674 5.0906 7.1250 -0.0000 -0.0000 62.8993 -72.9639 -46.1694
8.4801 15.3447 23.0172 180.6730 10.9848 184.1210 0.0000 0.0000 0.0000 -22.9598 -8.3344 -10.9079 2.6725 10.1450 29.4475 2.0902 5.8978 -29.9269 3.0498 -10.7753 -31.5257 0.0000 0.0000 0.0000 23.6808 14.4919 -7.0592 -2.1359 -9.1436 26.2456 -1.0035 -10.1852 -25.1700 -0.4150 4.1352 -11.4575 1.1908 0.9342 10.0469 0.3901 1.4643 -3.2530 -0.5159 0.6606 -9.0982 -5.3142 -0.4900 -5.7854 6.1245 -0.1966 -1.8397 2.8826 0.0458 0.4388 0.0000 -0.0000 0.0000 -83.2171 14.7036 24.8654 18.4030 -28.6701 -4.7410 -0.0000 -0.0000 17.9104 -11.4443 -28.3233 5.4863 -7.1250 0.0000 -0.0000 -24.0815 3.1475 25.0897 0.0000 -0.0000 0.0000 80.9092 -12.7866 25.5116 -20.7810 31.5718 -5.9349 0.0000 0.0000 20.1828 -6.5232 -51.0928 5.0848 7.1250 -0.0000 -0.0000 63.2906 -73.0077 -46.5598
8.4788 15.3259 23.0179 180.7470 10.9137 184.3140 0.0000 0.0000 0.0000 -22.7614 -8.0881 -11.7794 2.8417 10.4342 30.3947 2.1912 5.3441 -30.2689 3.1357 -10.9116 -31.9824 0.0000 0.0000 0.0000 23.6695 14.2852 -7.8317 -2.2577 -9.3834 27.0021 -1.0395 -10.1051 -25.3875 -0.5144 4.5973 -12.7633 1.2353 0.8900 10.6916 0.4520 1.4355 -3.5067 -0.4853 0.6405 -9.7561 -5.3191 -0.4177 -5.9016 6.0554 -0.1065 -1.6597 2.8635 0.0897 0.5103 0.0000 -0.0000 0.0000 -83.2852 15.0286 24.9112 18.4423 -28.7197 -4.7599 -0.0000 -0.0000 18.0983 -11.1439 -28.4891 5.3678 -7.1250 0.0000 -0.0000 -23.9101 2.9951 24.9445 0.0000 -0.0000 0.0000 80.6705 -13.1148 25.7382 -20.8578 31.6620 -5.9751 0.0000 0.0000 19.8642 -6.0673 -52.0655 4.7922 7.1250 -0.0000 -0.0000 66.5636 -73.2066 -49.6815
8.4772 15.3008 23.0233 180.8460 10.7498 184.6110 0.0000 0.0000 0.0000 -22.5145 -7.9040 -12.8040 3.0276 10.7396 31.4065 2.2670 4.7475 -30.4411 3.1888 -10.9946 -32.2616 0.0000 0.0000 0.0000 23.6447 14.0293 -8.8008 -2.3958 -9.6460 27.8377 -1.0992 -9.8316 -25.6293 -0.5488 4.7457 -13.1846 1.2523 0.8025 10.4983 0.5906 1.3252 -3.3064 -0.3208 0.5941 -9.4273 -5.3349 -0.3753 -6.0038 5.8674 -0.0057 -2.1637 2.8029 0.1479 0.3606 0.0000 -0.0000 0.0000 -83.5101 14.5054 24.8228 18.3795 -28.6404 -4.7297 -0.0000 -0.0000 18.1904 -10.5538 -28.7182 5.1156 -7.1250 0.0000 -0.0000 -23.5813 2.7833 24.6275 0.0000 -0.0000 0.0000 80.3163 -12.5824 25.8428 -20.7394 31.5229 -5.9131 0.0000 0.0000 19.7616 -5.6795 -52.6546 4.5206 7.1250 -0.0000 -0.0000 68.6348 -73.2621 -51.6150
8.4749 15.2715 23.0309 180.9980 10.6088 184.9170 0.0000 0.0000 0.0000 -22.2197 -7.7273 -13.8560 3.2294 11.0575 32.4740 2.3422 4.1636 -30.6248 3.2197 -11.0425 -32.4233 0.0000 0.0000 0.0000 23.6735 13.8181 -9.7721 -2.5524 -9.9325 28.7584 -1.1979 -9.3336 -25.9933 -0.4867 4.4735 -12.4126 1.4056 0.7231 10.6269 0.6575 1.2490 -3.2716 -0.3235 0.5506 -9.4642 -5.3306 -0.3258 -6.0813 5.8638 0.0983 -2.5585 2.8018 0.2093 0.2423 -0.0000 -0.0000 0.0000 -83.5540 14.2615 24.9689 18.3663 -28.6237 -4.7234 -0.0000 -0.0000 18.0311 -9.5836 -29.2929 4.7225 -7.1250 0.0000 -0.0000 -23.0279 2.2437 24.1762 -0.0000 -0.0000 0.0000 80.1833 -12.2974 25.8016 -20.5702 31.3232 -5.8249 0.0000 0.0000 19.8126 -5.9871 -52.0227 4.7259 7.1250 -0.0000 -0.0000 66.4755 -73.1623 -49.5524
